G04 #@! TF.GenerationSoftware,KiCad,Pcbnew,9.0.1*
G04 #@! TF.CreationDate,2026-02-12T23:06:57+05:30*
G04 #@! TF.ProjectId,project1,70726f6a-6563-4743-912e-6b696361645f,rev?*
G04 #@! TF.SameCoordinates,Original*
G04 #@! TF.FileFunction,Legend,Top*
G04 #@! TF.FilePolarity,Positive*
%FSLAX46Y46*%
G04 Gerber Fmt 4.6, Leading zero omitted, Abs format (unit mm)*
G04 Created by KiCad (PCBNEW 9.0.1) date 2026-02-12 23:06:57*
%MOMM*%
%LPD*%
G01*
G04 APERTURE LIST*
G04 Aperture macros list*
%AMRoundRect*
0 Rectangle with rounded corners*
0 $1 Rounding radius*
0 $2 $3 $4 $5 $6 $7 $8 $9 X,Y pos of 4 corners*
0 Add a 4 corners polygon primitive as box body*
4,1,4,$2,$3,$4,$5,$6,$7,$8,$9,$2,$3,0*
0 Add four circle primitives for the rounded corners*
1,1,$1+$1,$2,$3*
1,1,$1+$1,$4,$5*
1,1,$1+$1,$6,$7*
1,1,$1+$1,$8,$9*
0 Add four rect primitives between the rounded corners*
20,1,$1+$1,$2,$3,$4,$5,0*
20,1,$1+$1,$4,$5,$6,$7,0*
20,1,$1+$1,$6,$7,$8,$9,0*
20,1,$1+$1,$8,$9,$2,$3,0*%
G04 Aperture macros list end*
%ADD10C,0.125000*%
%ADD11C,0.250000*%
%ADD12C,0.150000*%
%ADD13C,0.120000*%
%ADD14RoundRect,0.150000X-0.150000X0.825000X-0.150000X-0.825000X0.150000X-0.825000X0.150000X0.825000X0*%
%ADD15C,1.500000*%
%ADD16RoundRect,0.135000X0.135000X0.185000X-0.135000X0.185000X-0.135000X-0.185000X0.135000X-0.185000X0*%
%ADD17R,1.700000X1.700000*%
%ADD18C,1.700000*%
%ADD19RoundRect,0.135000X-0.135000X-0.185000X0.135000X-0.185000X0.135000X0.185000X-0.135000X0.185000X0*%
G04 APERTURE END LIST*
D10*
X160642283Y-95191309D02*
X160642283Y-94691309D01*
X160642283Y-94691309D02*
X160761331Y-94691309D01*
X160761331Y-94691309D02*
X160832759Y-94715119D01*
X160832759Y-94715119D02*
X160880378Y-94762738D01*
X160880378Y-94762738D02*
X160904188Y-94810357D01*
X160904188Y-94810357D02*
X160927997Y-94905595D01*
X160927997Y-94905595D02*
X160927997Y-94977023D01*
X160927997Y-94977023D02*
X160904188Y-95072261D01*
X160904188Y-95072261D02*
X160880378Y-95119880D01*
X160880378Y-95119880D02*
X160832759Y-95167500D01*
X160832759Y-95167500D02*
X160761331Y-95191309D01*
X160761331Y-95191309D02*
X160642283Y-95191309D01*
X161237521Y-94691309D02*
X161285140Y-94691309D01*
X161285140Y-94691309D02*
X161332759Y-94715119D01*
X161332759Y-94715119D02*
X161356569Y-94738928D01*
X161356569Y-94738928D02*
X161380378Y-94786547D01*
X161380378Y-94786547D02*
X161404188Y-94881785D01*
X161404188Y-94881785D02*
X161404188Y-95000833D01*
X161404188Y-95000833D02*
X161380378Y-95096071D01*
X161380378Y-95096071D02*
X161356569Y-95143690D01*
X161356569Y-95143690D02*
X161332759Y-95167500D01*
X161332759Y-95167500D02*
X161285140Y-95191309D01*
X161285140Y-95191309D02*
X161237521Y-95191309D01*
X161237521Y-95191309D02*
X161189902Y-95167500D01*
X161189902Y-95167500D02*
X161166093Y-95143690D01*
X161166093Y-95143690D02*
X161142283Y-95096071D01*
X161142283Y-95096071D02*
X161118474Y-95000833D01*
X161118474Y-95000833D02*
X161118474Y-94881785D01*
X161118474Y-94881785D02*
X161142283Y-94786547D01*
X161142283Y-94786547D02*
X161166093Y-94738928D01*
X161166093Y-94738928D02*
X161189902Y-94715119D01*
X161189902Y-94715119D02*
X161237521Y-94691309D01*
X160618474Y-98167500D02*
X160689902Y-98191309D01*
X160689902Y-98191309D02*
X160808950Y-98191309D01*
X160808950Y-98191309D02*
X160856569Y-98167500D01*
X160856569Y-98167500D02*
X160880378Y-98143690D01*
X160880378Y-98143690D02*
X160904188Y-98096071D01*
X160904188Y-98096071D02*
X160904188Y-98048452D01*
X160904188Y-98048452D02*
X160880378Y-98000833D01*
X160880378Y-98000833D02*
X160856569Y-97977023D01*
X160856569Y-97977023D02*
X160808950Y-97953214D01*
X160808950Y-97953214D02*
X160713712Y-97929404D01*
X160713712Y-97929404D02*
X160666093Y-97905595D01*
X160666093Y-97905595D02*
X160642283Y-97881785D01*
X160642283Y-97881785D02*
X160618474Y-97834166D01*
X160618474Y-97834166D02*
X160618474Y-97786547D01*
X160618474Y-97786547D02*
X160642283Y-97738928D01*
X160642283Y-97738928D02*
X160666093Y-97715119D01*
X160666093Y-97715119D02*
X160713712Y-97691309D01*
X160713712Y-97691309D02*
X160832759Y-97691309D01*
X160832759Y-97691309D02*
X160904188Y-97715119D01*
X161118473Y-98191309D02*
X161118473Y-97691309D01*
X161118473Y-97691309D02*
X161237521Y-97691309D01*
X161237521Y-97691309D02*
X161308949Y-97715119D01*
X161308949Y-97715119D02*
X161356568Y-97762738D01*
X161356568Y-97762738D02*
X161380378Y-97810357D01*
X161380378Y-97810357D02*
X161404187Y-97905595D01*
X161404187Y-97905595D02*
X161404187Y-97977023D01*
X161404187Y-97977023D02*
X161380378Y-98072261D01*
X161380378Y-98072261D02*
X161356568Y-98119880D01*
X161356568Y-98119880D02*
X161308949Y-98167500D01*
X161308949Y-98167500D02*
X161237521Y-98191309D01*
X161237521Y-98191309D02*
X161118473Y-98191309D01*
X161594664Y-98048452D02*
X161832759Y-98048452D01*
X161547045Y-98191309D02*
X161713711Y-97691309D01*
X161713711Y-97691309D02*
X161880378Y-98191309D01*
D11*
X138414996Y-87123619D02*
X138081663Y-86647428D01*
X137843568Y-87123619D02*
X137843568Y-86123619D01*
X137843568Y-86123619D02*
X138224520Y-86123619D01*
X138224520Y-86123619D02*
X138319758Y-86171238D01*
X138319758Y-86171238D02*
X138367377Y-86218857D01*
X138367377Y-86218857D02*
X138414996Y-86314095D01*
X138414996Y-86314095D02*
X138414996Y-86456952D01*
X138414996Y-86456952D02*
X138367377Y-86552190D01*
X138367377Y-86552190D02*
X138319758Y-86599809D01*
X138319758Y-86599809D02*
X138224520Y-86647428D01*
X138224520Y-86647428D02*
X137843568Y-86647428D01*
X138700711Y-86123619D02*
X139272139Y-86123619D01*
X138986425Y-87123619D02*
X138986425Y-86123619D01*
X140176901Y-87028380D02*
X140129282Y-87076000D01*
X140129282Y-87076000D02*
X139986425Y-87123619D01*
X139986425Y-87123619D02*
X139891187Y-87123619D01*
X139891187Y-87123619D02*
X139748330Y-87076000D01*
X139748330Y-87076000D02*
X139653092Y-86980761D01*
X139653092Y-86980761D02*
X139605473Y-86885523D01*
X139605473Y-86885523D02*
X139557854Y-86695047D01*
X139557854Y-86695047D02*
X139557854Y-86552190D01*
X139557854Y-86552190D02*
X139605473Y-86361714D01*
X139605473Y-86361714D02*
X139653092Y-86266476D01*
X139653092Y-86266476D02*
X139748330Y-86171238D01*
X139748330Y-86171238D02*
X139891187Y-86123619D01*
X139891187Y-86123619D02*
X139986425Y-86123619D01*
X139986425Y-86123619D02*
X140129282Y-86171238D01*
X140129282Y-86171238D02*
X140176901Y-86218857D01*
X141367378Y-87123619D02*
X141367378Y-86123619D01*
X141367378Y-86123619D02*
X141700711Y-86837904D01*
X141700711Y-86837904D02*
X142034044Y-86123619D01*
X142034044Y-86123619D02*
X142034044Y-87123619D01*
X142700711Y-86123619D02*
X142891187Y-86123619D01*
X142891187Y-86123619D02*
X142986425Y-86171238D01*
X142986425Y-86171238D02*
X143081663Y-86266476D01*
X143081663Y-86266476D02*
X143129282Y-86456952D01*
X143129282Y-86456952D02*
X143129282Y-86790285D01*
X143129282Y-86790285D02*
X143081663Y-86980761D01*
X143081663Y-86980761D02*
X142986425Y-87076000D01*
X142986425Y-87076000D02*
X142891187Y-87123619D01*
X142891187Y-87123619D02*
X142700711Y-87123619D01*
X142700711Y-87123619D02*
X142605473Y-87076000D01*
X142605473Y-87076000D02*
X142510235Y-86980761D01*
X142510235Y-86980761D02*
X142462616Y-86790285D01*
X142462616Y-86790285D02*
X142462616Y-86456952D01*
X142462616Y-86456952D02*
X142510235Y-86266476D01*
X142510235Y-86266476D02*
X142605473Y-86171238D01*
X142605473Y-86171238D02*
X142700711Y-86123619D01*
X143557854Y-87123619D02*
X143557854Y-86123619D01*
X143557854Y-86123619D02*
X143795949Y-86123619D01*
X143795949Y-86123619D02*
X143938806Y-86171238D01*
X143938806Y-86171238D02*
X144034044Y-86266476D01*
X144034044Y-86266476D02*
X144081663Y-86361714D01*
X144081663Y-86361714D02*
X144129282Y-86552190D01*
X144129282Y-86552190D02*
X144129282Y-86695047D01*
X144129282Y-86695047D02*
X144081663Y-86885523D01*
X144081663Y-86885523D02*
X144034044Y-86980761D01*
X144034044Y-86980761D02*
X143938806Y-87076000D01*
X143938806Y-87076000D02*
X143795949Y-87123619D01*
X143795949Y-87123619D02*
X143557854Y-87123619D01*
X144557854Y-86123619D02*
X144557854Y-86933142D01*
X144557854Y-86933142D02*
X144605473Y-87028380D01*
X144605473Y-87028380D02*
X144653092Y-87076000D01*
X144653092Y-87076000D02*
X144748330Y-87123619D01*
X144748330Y-87123619D02*
X144938806Y-87123619D01*
X144938806Y-87123619D02*
X145034044Y-87076000D01*
X145034044Y-87076000D02*
X145081663Y-87028380D01*
X145081663Y-87028380D02*
X145129282Y-86933142D01*
X145129282Y-86933142D02*
X145129282Y-86123619D01*
X146081663Y-87123619D02*
X145605473Y-87123619D01*
X145605473Y-87123619D02*
X145605473Y-86123619D01*
X146414997Y-86599809D02*
X146748330Y-86599809D01*
X146891187Y-87123619D02*
X146414997Y-87123619D01*
X146414997Y-87123619D02*
X146414997Y-86123619D01*
X146414997Y-86123619D02*
X146891187Y-86123619D01*
D10*
X160904188Y-102715119D02*
X160856569Y-102691309D01*
X160856569Y-102691309D02*
X160785140Y-102691309D01*
X160785140Y-102691309D02*
X160713712Y-102715119D01*
X160713712Y-102715119D02*
X160666093Y-102762738D01*
X160666093Y-102762738D02*
X160642283Y-102810357D01*
X160642283Y-102810357D02*
X160618474Y-102905595D01*
X160618474Y-102905595D02*
X160618474Y-102977023D01*
X160618474Y-102977023D02*
X160642283Y-103072261D01*
X160642283Y-103072261D02*
X160666093Y-103119880D01*
X160666093Y-103119880D02*
X160713712Y-103167500D01*
X160713712Y-103167500D02*
X160785140Y-103191309D01*
X160785140Y-103191309D02*
X160832759Y-103191309D01*
X160832759Y-103191309D02*
X160904188Y-103167500D01*
X160904188Y-103167500D02*
X160927997Y-103143690D01*
X160927997Y-103143690D02*
X160927997Y-102977023D01*
X160927997Y-102977023D02*
X160832759Y-102977023D01*
X161142283Y-103191309D02*
X161142283Y-102691309D01*
X161142283Y-102691309D02*
X161427997Y-103191309D01*
X161427997Y-103191309D02*
X161427997Y-102691309D01*
X161666093Y-103191309D02*
X161666093Y-102691309D01*
X161666093Y-102691309D02*
X161785141Y-102691309D01*
X161785141Y-102691309D02*
X161856569Y-102715119D01*
X161856569Y-102715119D02*
X161904188Y-102762738D01*
X161904188Y-102762738D02*
X161927998Y-102810357D01*
X161927998Y-102810357D02*
X161951807Y-102905595D01*
X161951807Y-102905595D02*
X161951807Y-102977023D01*
X161951807Y-102977023D02*
X161927998Y-103072261D01*
X161927998Y-103072261D02*
X161904188Y-103119880D01*
X161904188Y-103119880D02*
X161856569Y-103167500D01*
X161856569Y-103167500D02*
X161785141Y-103191309D01*
X161785141Y-103191309D02*
X161666093Y-103191309D01*
X160618474Y-100667500D02*
X160689902Y-100691309D01*
X160689902Y-100691309D02*
X160808950Y-100691309D01*
X160808950Y-100691309D02*
X160856569Y-100667500D01*
X160856569Y-100667500D02*
X160880378Y-100643690D01*
X160880378Y-100643690D02*
X160904188Y-100596071D01*
X160904188Y-100596071D02*
X160904188Y-100548452D01*
X160904188Y-100548452D02*
X160880378Y-100500833D01*
X160880378Y-100500833D02*
X160856569Y-100477023D01*
X160856569Y-100477023D02*
X160808950Y-100453214D01*
X160808950Y-100453214D02*
X160713712Y-100429404D01*
X160713712Y-100429404D02*
X160666093Y-100405595D01*
X160666093Y-100405595D02*
X160642283Y-100381785D01*
X160642283Y-100381785D02*
X160618474Y-100334166D01*
X160618474Y-100334166D02*
X160618474Y-100286547D01*
X160618474Y-100286547D02*
X160642283Y-100238928D01*
X160642283Y-100238928D02*
X160666093Y-100215119D01*
X160666093Y-100215119D02*
X160713712Y-100191309D01*
X160713712Y-100191309D02*
X160832759Y-100191309D01*
X160832759Y-100191309D02*
X160904188Y-100215119D01*
X161404187Y-100643690D02*
X161380378Y-100667500D01*
X161380378Y-100667500D02*
X161308949Y-100691309D01*
X161308949Y-100691309D02*
X161261330Y-100691309D01*
X161261330Y-100691309D02*
X161189902Y-100667500D01*
X161189902Y-100667500D02*
X161142283Y-100619880D01*
X161142283Y-100619880D02*
X161118473Y-100572261D01*
X161118473Y-100572261D02*
X161094664Y-100477023D01*
X161094664Y-100477023D02*
X161094664Y-100405595D01*
X161094664Y-100405595D02*
X161118473Y-100310357D01*
X161118473Y-100310357D02*
X161142283Y-100262738D01*
X161142283Y-100262738D02*
X161189902Y-100215119D01*
X161189902Y-100215119D02*
X161261330Y-100191309D01*
X161261330Y-100191309D02*
X161308949Y-100191309D01*
X161308949Y-100191309D02*
X161380378Y-100215119D01*
X161380378Y-100215119D02*
X161404187Y-100238928D01*
X161856568Y-100691309D02*
X161618473Y-100691309D01*
X161618473Y-100691309D02*
X161618473Y-100191309D01*
X160642283Y-92500833D02*
X161023236Y-92500833D01*
X160832759Y-92691309D02*
X160832759Y-92310357D01*
X161499426Y-92191309D02*
X161261331Y-92191309D01*
X161261331Y-92191309D02*
X161237522Y-92429404D01*
X161237522Y-92429404D02*
X161261331Y-92405595D01*
X161261331Y-92405595D02*
X161308950Y-92381785D01*
X161308950Y-92381785D02*
X161427998Y-92381785D01*
X161427998Y-92381785D02*
X161475617Y-92405595D01*
X161475617Y-92405595D02*
X161499426Y-92429404D01*
X161499426Y-92429404D02*
X161523236Y-92477023D01*
X161523236Y-92477023D02*
X161523236Y-92596071D01*
X161523236Y-92596071D02*
X161499426Y-92643690D01*
X161499426Y-92643690D02*
X161475617Y-92667500D01*
X161475617Y-92667500D02*
X161427998Y-92691309D01*
X161427998Y-92691309D02*
X161308950Y-92691309D01*
X161308950Y-92691309D02*
X161261331Y-92667500D01*
X161261331Y-92667500D02*
X161237522Y-92643690D01*
X161666093Y-92191309D02*
X161832759Y-92691309D01*
X161832759Y-92691309D02*
X161999426Y-92191309D01*
D12*
X143395819Y-112020904D02*
X144205342Y-112020904D01*
X144205342Y-112020904D02*
X144300580Y-111973285D01*
X144300580Y-111973285D02*
X144348200Y-111925666D01*
X144348200Y-111925666D02*
X144395819Y-111830428D01*
X144395819Y-111830428D02*
X144395819Y-111639952D01*
X144395819Y-111639952D02*
X144348200Y-111544714D01*
X144348200Y-111544714D02*
X144300580Y-111497095D01*
X144300580Y-111497095D02*
X144205342Y-111449476D01*
X144205342Y-111449476D02*
X143395819Y-111449476D01*
X143395819Y-110497095D02*
X143395819Y-110973285D01*
X143395819Y-110973285D02*
X143872009Y-111020904D01*
X143872009Y-111020904D02*
X143824390Y-110973285D01*
X143824390Y-110973285D02*
X143776771Y-110878047D01*
X143776771Y-110878047D02*
X143776771Y-110639952D01*
X143776771Y-110639952D02*
X143824390Y-110544714D01*
X143824390Y-110544714D02*
X143872009Y-110497095D01*
X143872009Y-110497095D02*
X143967247Y-110449476D01*
X143967247Y-110449476D02*
X144205342Y-110449476D01*
X144205342Y-110449476D02*
X144300580Y-110497095D01*
X144300580Y-110497095D02*
X144348200Y-110544714D01*
X144348200Y-110544714D02*
X144395819Y-110639952D01*
X144395819Y-110639952D02*
X144395819Y-110878047D01*
X144395819Y-110878047D02*
X144348200Y-110973285D01*
X144348200Y-110973285D02*
X144300580Y-111020904D01*
X141919628Y-102235190D02*
X142395819Y-102235190D01*
X141395819Y-102568523D02*
X141919628Y-102235190D01*
X141919628Y-102235190D02*
X141395819Y-101901857D01*
X142395819Y-101044714D02*
X142395819Y-101616142D01*
X142395819Y-101330428D02*
X141395819Y-101330428D01*
X141395819Y-101330428D02*
X141538676Y-101425666D01*
X141538676Y-101425666D02*
X141633914Y-101520904D01*
X141633914Y-101520904D02*
X141681533Y-101616142D01*
D10*
X154367666Y-98483809D02*
X154201000Y-98245714D01*
X154081952Y-98483809D02*
X154081952Y-97983809D01*
X154081952Y-97983809D02*
X154272428Y-97983809D01*
X154272428Y-97983809D02*
X154320047Y-98007619D01*
X154320047Y-98007619D02*
X154343857Y-98031428D01*
X154343857Y-98031428D02*
X154367666Y-98079047D01*
X154367666Y-98079047D02*
X154367666Y-98150476D01*
X154367666Y-98150476D02*
X154343857Y-98198095D01*
X154343857Y-98198095D02*
X154320047Y-98221904D01*
X154320047Y-98221904D02*
X154272428Y-98245714D01*
X154272428Y-98245714D02*
X154081952Y-98245714D01*
X154558143Y-98031428D02*
X154581952Y-98007619D01*
X154581952Y-98007619D02*
X154629571Y-97983809D01*
X154629571Y-97983809D02*
X154748619Y-97983809D01*
X154748619Y-97983809D02*
X154796238Y-98007619D01*
X154796238Y-98007619D02*
X154820047Y-98031428D01*
X154820047Y-98031428D02*
X154843857Y-98079047D01*
X154843857Y-98079047D02*
X154843857Y-98126666D01*
X154843857Y-98126666D02*
X154820047Y-98198095D01*
X154820047Y-98198095D02*
X154534333Y-98483809D01*
X154534333Y-98483809D02*
X154843857Y-98483809D01*
D12*
X158107666Y-89713819D02*
X158107666Y-90428104D01*
X158107666Y-90428104D02*
X158060047Y-90570961D01*
X158060047Y-90570961D02*
X157964809Y-90666200D01*
X157964809Y-90666200D02*
X157821952Y-90713819D01*
X157821952Y-90713819D02*
X157726714Y-90713819D01*
X159107666Y-90713819D02*
X158536238Y-90713819D01*
X158821952Y-90713819D02*
X158821952Y-89713819D01*
X158821952Y-89713819D02*
X158726714Y-89856676D01*
X158726714Y-89856676D02*
X158631476Y-89951914D01*
X158631476Y-89951914D02*
X158536238Y-89999533D01*
D10*
X154857666Y-93813809D02*
X154691000Y-93575714D01*
X154571952Y-93813809D02*
X154571952Y-93313809D01*
X154571952Y-93313809D02*
X154762428Y-93313809D01*
X154762428Y-93313809D02*
X154810047Y-93337619D01*
X154810047Y-93337619D02*
X154833857Y-93361428D01*
X154833857Y-93361428D02*
X154857666Y-93409047D01*
X154857666Y-93409047D02*
X154857666Y-93480476D01*
X154857666Y-93480476D02*
X154833857Y-93528095D01*
X154833857Y-93528095D02*
X154810047Y-93551904D01*
X154810047Y-93551904D02*
X154762428Y-93575714D01*
X154762428Y-93575714D02*
X154571952Y-93575714D01*
X155333857Y-93813809D02*
X155048143Y-93813809D01*
X155191000Y-93813809D02*
X155191000Y-93313809D01*
X155191000Y-93313809D02*
X155143381Y-93385238D01*
X155143381Y-93385238D02*
X155095762Y-93432857D01*
X155095762Y-93432857D02*
X155048143Y-93456666D01*
D13*
X145866000Y-111394000D02*
X145866000Y-109444000D01*
X145866000Y-111394000D02*
X145866000Y-113344000D01*
X150986000Y-111394000D02*
X150986000Y-109444000D01*
X150986000Y-111394000D02*
X150986000Y-113344000D01*
X151221000Y-108934000D02*
X150891000Y-108694000D01*
X151221000Y-108454000D01*
X151221000Y-108934000D01*
G36*
X151221000Y-108934000D02*
G01*
X150891000Y-108694000D01*
X151221000Y-108454000D01*
X151221000Y-108934000D01*
G37*
X137681000Y-100209000D02*
X137681000Y-95509000D01*
X141201000Y-100209000D02*
X141201000Y-95509000D01*
X137681000Y-95509000D02*
G75*
G02*
X141201000Y-95509000I1760000J0D01*
G01*
X141201000Y-100209000D02*
G75*
G02*
X137681000Y-100209000I-1760000J0D01*
G01*
X145891000Y-99259000D02*
X145891000Y-97309000D01*
X145891000Y-99259000D02*
X145891000Y-101209000D01*
X151011000Y-99259000D02*
X151011000Y-97309000D01*
X151011000Y-99259000D02*
X151011000Y-101209000D01*
X151246000Y-96799000D02*
X150916000Y-96559000D01*
X151246000Y-96319000D01*
X151246000Y-96799000D01*
G36*
X151246000Y-96799000D02*
G01*
X150916000Y-96559000D01*
X151246000Y-96319000D01*
X151246000Y-96799000D01*
G37*
X154604641Y-97879000D02*
X154297359Y-97879000D01*
X154604641Y-98639000D02*
X154297359Y-98639000D01*
X157061000Y-91259000D02*
X158441000Y-91259000D01*
X157061000Y-92639000D02*
X157061000Y-91259000D01*
X157061000Y-93909000D02*
X157061000Y-104179000D01*
X157061000Y-93909000D02*
X159821000Y-93909000D01*
X157061000Y-104179000D02*
X159821000Y-104179000D01*
X159821000Y-93909000D02*
X159821000Y-104179000D01*
X154787359Y-94379000D02*
X155094641Y-94379000D01*
X154787359Y-95139000D02*
X155094641Y-95139000D01*
%LPC*%
D14*
X150331000Y-108919000D03*
X149061000Y-108919000D03*
X147791000Y-108919000D03*
X146521000Y-108919000D03*
X146521000Y-113869000D03*
X147791000Y-113869000D03*
X149061000Y-113869000D03*
X150331000Y-113869000D03*
D15*
X139441000Y-99759000D03*
X139441000Y-95959000D03*
D14*
X150356000Y-96784000D03*
X149086000Y-96784000D03*
X147816000Y-96784000D03*
X146546000Y-96784000D03*
X146546000Y-101734000D03*
X147816000Y-101734000D03*
X149086000Y-101734000D03*
X150356000Y-101734000D03*
D16*
X154961000Y-98259000D03*
X153941000Y-98259000D03*
D17*
X158441000Y-92639000D03*
D18*
X158441000Y-95179000D03*
X158441000Y-97719000D03*
X158441000Y-100259000D03*
X158441000Y-102799000D03*
D19*
X154431000Y-94759000D03*
X155451000Y-94759000D03*
%LPD*%
M02*
