G04 #@! TF.GenerationSoftware,KiCad,Pcbnew,9.0.1*
G04 #@! TF.CreationDate,2026-02-12T23:06:56+05:30*
G04 #@! TF.ProjectId,project1,70726f6a-6563-4743-912e-6b696361645f,rev?*
G04 #@! TF.SameCoordinates,Original*
G04 #@! TF.FileFunction,Copper,L2,Bot*
G04 #@! TF.FilePolarity,Positive*
%FSLAX46Y46*%
G04 Gerber Fmt 4.6, Leading zero omitted, Abs format (unit mm)*
G04 Created by KiCad (PCBNEW 9.0.1) date 2026-02-12 23:06:56*
%MOMM*%
%LPD*%
G01*
G04 APERTURE LIST*
G04 Aperture macros list*
%AMRoundRect*
0 Rectangle with rounded corners*
0 $1 Rounding radius*
0 $2 $3 $4 $5 $6 $7 $8 $9 X,Y pos of 4 corners*
0 Add a 4 corners polygon primitive as box body*
4,1,4,$2,$3,$4,$5,$6,$7,$8,$9,$2,$3,0*
0 Add four circle primitives for the rounded corners*
1,1,$1+$1,$2,$3*
1,1,$1+$1,$4,$5*
1,1,$1+$1,$6,$7*
1,1,$1+$1,$8,$9*
0 Add four rect primitives between the rounded corners*
20,1,$1+$1,$2,$3,$4,$5,0*
20,1,$1+$1,$4,$5,$6,$7,0*
20,1,$1+$1,$6,$7,$8,$9,0*
20,1,$1+$1,$8,$9,$2,$3,0*%
G04 Aperture macros list end*
G04 #@! TA.AperFunction,ComponentPad*
%ADD10C,1.500000*%
G04 #@! TD*
G04 #@! TA.AperFunction,ComponentPad*
%ADD11R,1.700000X1.700000*%
G04 #@! TD*
G04 #@! TA.AperFunction,ComponentPad*
%ADD12C,1.700000*%
G04 #@! TD*
G04 #@! TA.AperFunction,SMDPad,CuDef*
%ADD13RoundRect,0.150000X0.825000X0.150000X-0.825000X0.150000X-0.825000X-0.150000X0.825000X-0.150000X0*%
G04 #@! TD*
G04 #@! TA.AperFunction,ViaPad*
%ADD14C,0.600000*%
G04 #@! TD*
G04 #@! TA.AperFunction,Conductor*
%ADD15C,0.200000*%
G04 #@! TD*
G04 APERTURE END LIST*
D10*
X139441000Y-99759000D03*
X139441000Y-95959000D03*
D11*
X158441000Y-92639000D03*
D12*
X158441000Y-95179000D03*
X158441000Y-97719000D03*
X158441000Y-100259000D03*
X158441000Y-102799000D03*
D13*
X150901000Y-88354000D03*
X150901000Y-89624000D03*
X150901000Y-90894000D03*
X150901000Y-92164000D03*
X145951000Y-92164000D03*
X145951000Y-90894000D03*
X145951000Y-89624000D03*
X145951000Y-88354000D03*
D14*
X151941000Y-110259000D03*
X152941000Y-101259000D03*
X151941000Y-102259000D03*
X146441000Y-94259000D03*
X147790000Y-111259000D03*
X146520000Y-110759000D03*
X144441000Y-97759000D03*
X146520000Y-106759000D03*
X148941000Y-89759000D03*
X160941000Y-96759000D03*
X155941000Y-96259000D03*
X152941000Y-92259000D03*
X155941000Y-99159000D03*
D15*
X151941000Y-107759000D02*
X151941000Y-102259000D01*
X152941000Y-101259000D02*
X154941000Y-99259000D01*
X151941000Y-110259000D02*
X151941000Y-107759000D01*
X147590000Y-111408000D02*
X147641000Y-111408000D01*
X146441000Y-94259000D02*
X146441000Y-92654000D01*
X144441000Y-104680000D02*
X144441000Y-97759000D01*
X144441000Y-97759000D02*
X145941000Y-97759000D01*
X146520000Y-110759000D02*
X146941000Y-110759000D01*
X146941000Y-110759000D02*
X147590000Y-111408000D01*
X146520000Y-106759000D02*
X144441000Y-104680000D01*
X146441000Y-92654000D02*
X145951000Y-92164000D01*
X147641000Y-111408000D02*
X147790000Y-111259000D01*
X148941000Y-89759000D02*
X148941000Y-91178999D01*
X149926001Y-92164000D02*
X150901000Y-92164000D01*
X148941000Y-91178999D02*
X149926001Y-92164000D01*
X160941000Y-96759000D02*
X160750000Y-96568000D01*
X155941000Y-96259000D02*
X155765480Y-96259000D01*
X160750000Y-96568000D02*
X156250000Y-96568000D01*
X156250000Y-96568000D02*
X155941000Y-96259000D01*
X150901000Y-90894000D02*
X151576000Y-90894000D01*
X151576000Y-90894000D02*
X152941000Y-92259000D01*
X155941000Y-99259000D02*
X155941000Y-99159000D01*
X154941000Y-99259000D02*
X155941000Y-99259000D01*
G04 #@! TA.AperFunction,Conductor*
G36*
X162384039Y-85528685D02*
G01*
X162429794Y-85581489D01*
X162441000Y-85633000D01*
X162441000Y-115885000D01*
X162421315Y-115952039D01*
X162368511Y-115997794D01*
X162317000Y-116009000D01*
X137065000Y-116009000D01*
X136997961Y-115989315D01*
X136952206Y-115936511D01*
X136941000Y-115885000D01*
X136941000Y-102180153D01*
X151140500Y-102180153D01*
X151140500Y-102337846D01*
X151171261Y-102492489D01*
X151171264Y-102492501D01*
X151231602Y-102638172D01*
X151231609Y-102638185D01*
X151319602Y-102769874D01*
X151340480Y-102836551D01*
X151340500Y-102838765D01*
X151340500Y-109679234D01*
X151320815Y-109746273D01*
X151319602Y-109748125D01*
X151231609Y-109879814D01*
X151231602Y-109879827D01*
X151171264Y-110025498D01*
X151171261Y-110025510D01*
X151140500Y-110180153D01*
X151140500Y-110337846D01*
X151171261Y-110492489D01*
X151171264Y-110492501D01*
X151231602Y-110638172D01*
X151231609Y-110638185D01*
X151319210Y-110769288D01*
X151319213Y-110769292D01*
X151430707Y-110880786D01*
X151430711Y-110880789D01*
X151561814Y-110968390D01*
X151561827Y-110968397D01*
X151707498Y-111028735D01*
X151707503Y-111028737D01*
X151862153Y-111059499D01*
X151862156Y-111059500D01*
X151862158Y-111059500D01*
X152019844Y-111059500D01*
X152019845Y-111059499D01*
X152174497Y-111028737D01*
X152320179Y-110968394D01*
X152451289Y-110880789D01*
X152562789Y-110769289D01*
X152650394Y-110638179D01*
X152710737Y-110492497D01*
X152741500Y-110337842D01*
X152741500Y-110180158D01*
X152741500Y-110180155D01*
X152741499Y-110180153D01*
X152710738Y-110025510D01*
X152710737Y-110025503D01*
X152710735Y-110025498D01*
X152650397Y-109879827D01*
X152650390Y-109879814D01*
X152562398Y-109748125D01*
X152541520Y-109681447D01*
X152541500Y-109679234D01*
X152541500Y-102838765D01*
X152546647Y-102821235D01*
X152546780Y-102802966D01*
X152560626Y-102773626D01*
X152561185Y-102771726D01*
X152561675Y-102770969D01*
X152562739Y-102769338D01*
X152562789Y-102769289D01*
X152650394Y-102638179D01*
X152710737Y-102492497D01*
X152741500Y-102337842D01*
X152741500Y-102183500D01*
X152761185Y-102116461D01*
X152813989Y-102070706D01*
X152865500Y-102059500D01*
X153019844Y-102059500D01*
X153019845Y-102059499D01*
X153174497Y-102028737D01*
X153320179Y-101968394D01*
X153451289Y-101880789D01*
X153562789Y-101769289D01*
X153650394Y-101638179D01*
X153710737Y-101492497D01*
X153741500Y-101337842D01*
X153741638Y-101337150D01*
X153774023Y-101275239D01*
X153775518Y-101273716D01*
X155153416Y-99895819D01*
X155214739Y-99862334D01*
X155241097Y-99859500D01*
X155515684Y-99859500D01*
X155563136Y-99868939D01*
X155628031Y-99895819D01*
X155707503Y-99928737D01*
X155862153Y-99959499D01*
X155862156Y-99959500D01*
X155862158Y-99959500D01*
X156019844Y-99959500D01*
X156019845Y-99959499D01*
X156174497Y-99928737D01*
X156320179Y-99868394D01*
X156451289Y-99780789D01*
X156562789Y-99669289D01*
X156650394Y-99538179D01*
X156710737Y-99392497D01*
X156741500Y-99237842D01*
X156741500Y-99080158D01*
X156741500Y-99080155D01*
X156741499Y-99080153D01*
X156723367Y-98989000D01*
X156710737Y-98925503D01*
X156696149Y-98890284D01*
X156650397Y-98779827D01*
X156650390Y-98779814D01*
X156562789Y-98648711D01*
X156562786Y-98648707D01*
X156451292Y-98537213D01*
X156451288Y-98537210D01*
X156320185Y-98449609D01*
X156320172Y-98449602D01*
X156174501Y-98389264D01*
X156174489Y-98389261D01*
X156019845Y-98358500D01*
X156019842Y-98358500D01*
X155862158Y-98358500D01*
X155862155Y-98358500D01*
X155707510Y-98389261D01*
X155707498Y-98389264D01*
X155561827Y-98449602D01*
X155561814Y-98449609D01*
X155430712Y-98537209D01*
X155388227Y-98579695D01*
X155345739Y-98622182D01*
X155284419Y-98655666D01*
X155258060Y-98658500D01*
X155020057Y-98658500D01*
X154861943Y-98658500D01*
X154709215Y-98699423D01*
X154709214Y-98699423D01*
X154709212Y-98699424D01*
X154709211Y-98699424D01*
X154674440Y-98719500D01*
X154572287Y-98778477D01*
X154572282Y-98778481D01*
X152926339Y-100424425D01*
X152865016Y-100457910D01*
X152862850Y-100458361D01*
X152707508Y-100489261D01*
X152707498Y-100489264D01*
X152561827Y-100549602D01*
X152561814Y-100549609D01*
X152430711Y-100637210D01*
X152430707Y-100637213D01*
X152319213Y-100748707D01*
X152319210Y-100748711D01*
X152231609Y-100879814D01*
X152231602Y-100879827D01*
X152171264Y-101025498D01*
X152171261Y-101025510D01*
X152140500Y-101180153D01*
X152140500Y-101334500D01*
X152120815Y-101401539D01*
X152068011Y-101447294D01*
X152016500Y-101458500D01*
X151862155Y-101458500D01*
X151707510Y-101489261D01*
X151707498Y-101489264D01*
X151561827Y-101549602D01*
X151561814Y-101549609D01*
X151430711Y-101637210D01*
X151430707Y-101637213D01*
X151319213Y-101748707D01*
X151319210Y-101748711D01*
X151231609Y-101879814D01*
X151231602Y-101879827D01*
X151171264Y-102025498D01*
X151171261Y-102025510D01*
X151140500Y-102180153D01*
X136941000Y-102180153D01*
X136941000Y-99660577D01*
X138190500Y-99660577D01*
X138190500Y-99857422D01*
X138221290Y-100051826D01*
X138282117Y-100239029D01*
X138346449Y-100365287D01*
X138371476Y-100414405D01*
X138487172Y-100573646D01*
X138626354Y-100712828D01*
X138785595Y-100828524D01*
X138868455Y-100870743D01*
X138960970Y-100917882D01*
X138960972Y-100917882D01*
X138960975Y-100917884D01*
X139061317Y-100950487D01*
X139148173Y-100978709D01*
X139342578Y-101009500D01*
X139342583Y-101009500D01*
X139539422Y-101009500D01*
X139733826Y-100978709D01*
X139770416Y-100966820D01*
X139921025Y-100917884D01*
X140096405Y-100828524D01*
X140255646Y-100712828D01*
X140394828Y-100573646D01*
X140510524Y-100414405D01*
X140599884Y-100239025D01*
X140660709Y-100051826D01*
X140675332Y-99959499D01*
X140691500Y-99857422D01*
X140691500Y-99660577D01*
X140660709Y-99466173D01*
X140599882Y-99278970D01*
X140510523Y-99103594D01*
X140394828Y-98944354D01*
X140255646Y-98805172D01*
X140096405Y-98689476D01*
X140030049Y-98655666D01*
X139921029Y-98600117D01*
X139733826Y-98539290D01*
X139539422Y-98508500D01*
X139539417Y-98508500D01*
X139342583Y-98508500D01*
X139342578Y-98508500D01*
X139148173Y-98539290D01*
X138960970Y-98600117D01*
X138785594Y-98689476D01*
X138703518Y-98749109D01*
X138626354Y-98805172D01*
X138626352Y-98805174D01*
X138626351Y-98805174D01*
X138487174Y-98944351D01*
X138487174Y-98944352D01*
X138487172Y-98944354D01*
X138458591Y-98983692D01*
X138371476Y-99103594D01*
X138282117Y-99278970D01*
X138221290Y-99466173D01*
X138190500Y-99660577D01*
X136941000Y-99660577D01*
X136941000Y-95860577D01*
X138190500Y-95860577D01*
X138190500Y-96057422D01*
X138221290Y-96251826D01*
X138282117Y-96439029D01*
X138371476Y-96614405D01*
X138487172Y-96773646D01*
X138626354Y-96912828D01*
X138785595Y-97028524D01*
X138846389Y-97059500D01*
X138960970Y-97117882D01*
X138960972Y-97117882D01*
X138960975Y-97117884D01*
X139023455Y-97138185D01*
X139148173Y-97178709D01*
X139342578Y-97209500D01*
X139342583Y-97209500D01*
X139539422Y-97209500D01*
X139733826Y-97178709D01*
X139759657Y-97170316D01*
X139921025Y-97117884D01*
X140096405Y-97028524D01*
X140255646Y-96912828D01*
X140394828Y-96773646D01*
X140510524Y-96614405D01*
X140599884Y-96439025D01*
X140660709Y-96251826D01*
X140672061Y-96180153D01*
X155140500Y-96180153D01*
X155140500Y-96337846D01*
X155171261Y-96492489D01*
X155171264Y-96492501D01*
X155231602Y-96638172D01*
X155231609Y-96638185D01*
X155319210Y-96769288D01*
X155319213Y-96769292D01*
X155430707Y-96880786D01*
X155430711Y-96880789D01*
X155561814Y-96968390D01*
X155561827Y-96968397D01*
X155706986Y-97028523D01*
X155707503Y-97028737D01*
X155862153Y-97059499D01*
X155862156Y-97059500D01*
X155862158Y-97059500D01*
X155867078Y-97059500D01*
X155882566Y-97063649D01*
X155896309Y-97062995D01*
X155929071Y-97076109D01*
X155968092Y-97098637D01*
X155968094Y-97098639D01*
X155968095Y-97098639D01*
X156018215Y-97127577D01*
X156170943Y-97168501D01*
X156170946Y-97168501D01*
X156336653Y-97168501D01*
X156336669Y-97168500D01*
X157029198Y-97168500D01*
X157096237Y-97188185D01*
X157141992Y-97240989D01*
X157151936Y-97310147D01*
X157147129Y-97330818D01*
X157123753Y-97402760D01*
X157090500Y-97612713D01*
X157090500Y-97825286D01*
X157123753Y-98035239D01*
X157189444Y-98237414D01*
X157285951Y-98426820D01*
X157410890Y-98598786D01*
X157561213Y-98749109D01*
X157733182Y-98874050D01*
X157741946Y-98878516D01*
X157792742Y-98926491D01*
X157809536Y-98994312D01*
X157786998Y-99060447D01*
X157741946Y-99099484D01*
X157733182Y-99103949D01*
X157561213Y-99228890D01*
X157410890Y-99379213D01*
X157285951Y-99551179D01*
X157189444Y-99740585D01*
X157123753Y-99942760D01*
X157121102Y-99959499D01*
X157090500Y-100152713D01*
X157090500Y-100365287D01*
X157123754Y-100575243D01*
X157180117Y-100748711D01*
X157189444Y-100777414D01*
X157285951Y-100966820D01*
X157410890Y-101138786D01*
X157561213Y-101289109D01*
X157733179Y-101414048D01*
X157733181Y-101414049D01*
X157733184Y-101414051D01*
X157742493Y-101418794D01*
X157793290Y-101466766D01*
X157810087Y-101534587D01*
X157787552Y-101600722D01*
X157742505Y-101639760D01*
X157733446Y-101644376D01*
X157733440Y-101644380D01*
X157679282Y-101683727D01*
X157679282Y-101683728D01*
X158311591Y-102316037D01*
X158248007Y-102333075D01*
X158133993Y-102398901D01*
X158040901Y-102491993D01*
X157975075Y-102606007D01*
X157958037Y-102669591D01*
X157325728Y-102037282D01*
X157325727Y-102037282D01*
X157286380Y-102091439D01*
X157189904Y-102280782D01*
X157124242Y-102482869D01*
X157124242Y-102482872D01*
X157091000Y-102692753D01*
X157091000Y-102905246D01*
X157124242Y-103115127D01*
X157124242Y-103115130D01*
X157189904Y-103317217D01*
X157286375Y-103506550D01*
X157325728Y-103560716D01*
X157958037Y-102928408D01*
X157975075Y-102991993D01*
X158040901Y-103106007D01*
X158133993Y-103199099D01*
X158248007Y-103264925D01*
X158311590Y-103281962D01*
X157679282Y-103914269D01*
X157679282Y-103914270D01*
X157733449Y-103953624D01*
X157922782Y-104050095D01*
X158124870Y-104115757D01*
X158334754Y-104149000D01*
X158547246Y-104149000D01*
X158757127Y-104115757D01*
X158757130Y-104115757D01*
X158959217Y-104050095D01*
X159148554Y-103953622D01*
X159202716Y-103914270D01*
X159202717Y-103914270D01*
X158570408Y-103281962D01*
X158633993Y-103264925D01*
X158748007Y-103199099D01*
X158841099Y-103106007D01*
X158906925Y-102991993D01*
X158923962Y-102928409D01*
X159556270Y-103560717D01*
X159556270Y-103560716D01*
X159595622Y-103506554D01*
X159692095Y-103317217D01*
X159757757Y-103115130D01*
X159757757Y-103115127D01*
X159791000Y-102905246D01*
X159791000Y-102692753D01*
X159757757Y-102482872D01*
X159757757Y-102482869D01*
X159692095Y-102280782D01*
X159595624Y-102091449D01*
X159556270Y-102037282D01*
X159556269Y-102037282D01*
X158923962Y-102669590D01*
X158906925Y-102606007D01*
X158841099Y-102491993D01*
X158748007Y-102398901D01*
X158633993Y-102333075D01*
X158570409Y-102316037D01*
X159202716Y-101683728D01*
X159148547Y-101644373D01*
X159148547Y-101644372D01*
X159139500Y-101639763D01*
X159088706Y-101591788D01*
X159071912Y-101523966D01*
X159094451Y-101457832D01*
X159139508Y-101418793D01*
X159148816Y-101414051D01*
X159228007Y-101356515D01*
X159320786Y-101289109D01*
X159320788Y-101289106D01*
X159320792Y-101289104D01*
X159471104Y-101138792D01*
X159471106Y-101138788D01*
X159471109Y-101138786D01*
X159596048Y-100966820D01*
X159596047Y-100966820D01*
X159596051Y-100966816D01*
X159692557Y-100777412D01*
X159758246Y-100575243D01*
X159791500Y-100365287D01*
X159791500Y-100152713D01*
X159758246Y-99942757D01*
X159692557Y-99740588D01*
X159596051Y-99551184D01*
X159596049Y-99551181D01*
X159596048Y-99551179D01*
X159471109Y-99379213D01*
X159320786Y-99228890D01*
X159148820Y-99103951D01*
X159148115Y-99103591D01*
X159140054Y-99099485D01*
X159089259Y-99051512D01*
X159072463Y-98983692D01*
X159094999Y-98917556D01*
X159140054Y-98878515D01*
X159148816Y-98874051D01*
X159243618Y-98805174D01*
X159320786Y-98749109D01*
X159320788Y-98749106D01*
X159320792Y-98749104D01*
X159471104Y-98598792D01*
X159471106Y-98598788D01*
X159471109Y-98598786D01*
X159596048Y-98426820D01*
X159596047Y-98426820D01*
X159596051Y-98426816D01*
X159692557Y-98237412D01*
X159758246Y-98035243D01*
X159791500Y-97825287D01*
X159791500Y-97612713D01*
X159758246Y-97402757D01*
X159734870Y-97330816D01*
X159732876Y-97260977D01*
X159768956Y-97201144D01*
X159831657Y-97170316D01*
X159852802Y-97168500D01*
X160185586Y-97168500D01*
X160252625Y-97188185D01*
X160288688Y-97223609D01*
X160319210Y-97269288D01*
X160319213Y-97269292D01*
X160430707Y-97380786D01*
X160430711Y-97380789D01*
X160561814Y-97468390D01*
X160561827Y-97468397D01*
X160707498Y-97528735D01*
X160707503Y-97528737D01*
X160862153Y-97559499D01*
X160862156Y-97559500D01*
X160862158Y-97559500D01*
X161019844Y-97559500D01*
X161019845Y-97559499D01*
X161174497Y-97528737D01*
X161320179Y-97468394D01*
X161451289Y-97380789D01*
X161562789Y-97269289D01*
X161650394Y-97138179D01*
X161654786Y-97127577D01*
X161682984Y-97059499D01*
X161710737Y-96992497D01*
X161741500Y-96837842D01*
X161741500Y-96680158D01*
X161741500Y-96680155D01*
X161741499Y-96680153D01*
X161710738Y-96525510D01*
X161710737Y-96525503D01*
X161674917Y-96439025D01*
X161650397Y-96379827D01*
X161650390Y-96379814D01*
X161562789Y-96248711D01*
X161562786Y-96248707D01*
X161451292Y-96137213D01*
X161451288Y-96137210D01*
X161320185Y-96049609D01*
X161320172Y-96049602D01*
X161174501Y-95989264D01*
X161174489Y-95989261D01*
X161019845Y-95958500D01*
X161019842Y-95958500D01*
X160862158Y-95958500D01*
X160862157Y-95958500D01*
X160850233Y-95960872D01*
X160828896Y-95965116D01*
X160804706Y-95967499D01*
X160670943Y-95967499D01*
X160670939Y-95967499D01*
X160663332Y-95967500D01*
X160663331Y-95967499D01*
X160663331Y-95967500D01*
X159757290Y-95967500D01*
X159690251Y-95947815D01*
X159644496Y-95895011D01*
X159634552Y-95825853D01*
X159646805Y-95787205D01*
X159692557Y-95697412D01*
X159758246Y-95495243D01*
X159791500Y-95285287D01*
X159791500Y-95072713D01*
X159758246Y-94862757D01*
X159692557Y-94660588D01*
X159596051Y-94471184D01*
X159596049Y-94471181D01*
X159596048Y-94471179D01*
X159471109Y-94299213D01*
X159357569Y-94185673D01*
X159324084Y-94124350D01*
X159329068Y-94054658D01*
X159370940Y-93998725D01*
X159401915Y-93981810D01*
X159533331Y-93932796D01*
X159648546Y-93846546D01*
X159734796Y-93731331D01*
X159785091Y-93596483D01*
X159791500Y-93536873D01*
X159791499Y-91741128D01*
X159785091Y-91681517D01*
X159779523Y-91666589D01*
X159734797Y-91546671D01*
X159734793Y-91546664D01*
X159648547Y-91431455D01*
X159648544Y-91431452D01*
X159533335Y-91345206D01*
X159533328Y-91345202D01*
X159398482Y-91294908D01*
X159398483Y-91294908D01*
X159338883Y-91288501D01*
X159338881Y-91288500D01*
X159338873Y-91288500D01*
X159338864Y-91288500D01*
X157543129Y-91288500D01*
X157543123Y-91288501D01*
X157483516Y-91294908D01*
X157348671Y-91345202D01*
X157348664Y-91345206D01*
X157233455Y-91431452D01*
X157233452Y-91431455D01*
X157147206Y-91546664D01*
X157147202Y-91546671D01*
X157096908Y-91681517D01*
X157090501Y-91741116D01*
X157090501Y-91741123D01*
X157090500Y-91741135D01*
X157090500Y-93536870D01*
X157090501Y-93536876D01*
X157096908Y-93596483D01*
X157147202Y-93731328D01*
X157147206Y-93731335D01*
X157233452Y-93846544D01*
X157233455Y-93846547D01*
X157348664Y-93932793D01*
X157348671Y-93932797D01*
X157480082Y-93981810D01*
X157536016Y-94023681D01*
X157560433Y-94089145D01*
X157545582Y-94157418D01*
X157524431Y-94185673D01*
X157410889Y-94299215D01*
X157285951Y-94471179D01*
X157189444Y-94660585D01*
X157123753Y-94862760D01*
X157090500Y-95072713D01*
X157090500Y-95285286D01*
X157122806Y-95489261D01*
X157123754Y-95495243D01*
X157169882Y-95637211D01*
X157189444Y-95697414D01*
X157235195Y-95787205D01*
X157248091Y-95855874D01*
X157221815Y-95920615D01*
X157164709Y-95960872D01*
X157124710Y-95967500D01*
X156769566Y-95967500D01*
X156702527Y-95947815D01*
X156656772Y-95895011D01*
X156655004Y-95890951D01*
X156650394Y-95879821D01*
X156650390Y-95879814D01*
X156562789Y-95748711D01*
X156562786Y-95748707D01*
X156451292Y-95637213D01*
X156451288Y-95637210D01*
X156320185Y-95549609D01*
X156320172Y-95549602D01*
X156174501Y-95489264D01*
X156174489Y-95489261D01*
X156019845Y-95458500D01*
X156019842Y-95458500D01*
X155862158Y-95458500D01*
X155862155Y-95458500D01*
X155707510Y-95489261D01*
X155707498Y-95489264D01*
X155561827Y-95549602D01*
X155561814Y-95549609D01*
X155430711Y-95637210D01*
X155430707Y-95637213D01*
X155319213Y-95748707D01*
X155319210Y-95748711D01*
X155231609Y-95879814D01*
X155231602Y-95879827D01*
X155171264Y-96025498D01*
X155171261Y-96025510D01*
X155140500Y-96180153D01*
X140672061Y-96180153D01*
X140676098Y-96154667D01*
X140676098Y-96154666D01*
X140691500Y-96057422D01*
X140691500Y-95860577D01*
X140660709Y-95666173D01*
X140632487Y-95579317D01*
X140599884Y-95478975D01*
X140599882Y-95478972D01*
X140599882Y-95478970D01*
X140510523Y-95303594D01*
X140497222Y-95285287D01*
X140394828Y-95144354D01*
X140255646Y-95005172D01*
X140096405Y-94889476D01*
X140043966Y-94862757D01*
X139921029Y-94800117D01*
X139733826Y-94739290D01*
X139539422Y-94708500D01*
X139539417Y-94708500D01*
X139342583Y-94708500D01*
X139342578Y-94708500D01*
X139148173Y-94739290D01*
X138960970Y-94800117D01*
X138785594Y-94889476D01*
X138694741Y-94955485D01*
X138626354Y-95005172D01*
X138626352Y-95005174D01*
X138626351Y-95005174D01*
X138487174Y-95144351D01*
X138487174Y-95144352D01*
X138487172Y-95144354D01*
X138437485Y-95212741D01*
X138371476Y-95303594D01*
X138282117Y-95478970D01*
X138221290Y-95666173D01*
X138190500Y-95860577D01*
X136941000Y-95860577D01*
X136941000Y-92414001D01*
X144478704Y-92414001D01*
X144478899Y-92416486D01*
X144524718Y-92574198D01*
X144608314Y-92715552D01*
X144608321Y-92715561D01*
X144724438Y-92831678D01*
X144724447Y-92831685D01*
X144865803Y-92915282D01*
X144865806Y-92915283D01*
X145023504Y-92961099D01*
X145023510Y-92961100D01*
X145060350Y-92963999D01*
X145060366Y-92964000D01*
X145701000Y-92964000D01*
X146201000Y-92964000D01*
X146841634Y-92964000D01*
X146841649Y-92963999D01*
X146878489Y-92961100D01*
X146878495Y-92961099D01*
X147036193Y-92915283D01*
X147036196Y-92915282D01*
X147177552Y-92831685D01*
X147177561Y-92831678D01*
X147293678Y-92715561D01*
X147293685Y-92715552D01*
X147377281Y-92574198D01*
X147423100Y-92416486D01*
X147423295Y-92414001D01*
X147423295Y-92414000D01*
X146201000Y-92414000D01*
X146201000Y-92964000D01*
X145701000Y-92964000D01*
X145701000Y-92414000D01*
X144478705Y-92414000D01*
X144478704Y-92414001D01*
X136941000Y-92414001D01*
X136941000Y-88138298D01*
X144475500Y-88138298D01*
X144475500Y-88569701D01*
X144478401Y-88606567D01*
X144478402Y-88606573D01*
X144524254Y-88764393D01*
X144524255Y-88764396D01*
X144607917Y-88905862D01*
X144612702Y-88912031D01*
X144610256Y-88913927D01*
X144636857Y-88962642D01*
X144631873Y-89032334D01*
X144611069Y-89064703D01*
X144612702Y-89065969D01*
X144607917Y-89072137D01*
X144524255Y-89213603D01*
X144524254Y-89213606D01*
X144478402Y-89371426D01*
X144478401Y-89371432D01*
X144475500Y-89408298D01*
X144475500Y-89839701D01*
X144478401Y-89876567D01*
X144478402Y-89876573D01*
X144524254Y-90034393D01*
X144524255Y-90034396D01*
X144607917Y-90175862D01*
X144612702Y-90182031D01*
X144610256Y-90183927D01*
X144636857Y-90232642D01*
X144631873Y-90302334D01*
X144611069Y-90334703D01*
X144612702Y-90335969D01*
X144607917Y-90342137D01*
X144524255Y-90483603D01*
X144524254Y-90483606D01*
X144478402Y-90641426D01*
X144478401Y-90641432D01*
X144475500Y-90678298D01*
X144475500Y-91109701D01*
X144478401Y-91146567D01*
X144478402Y-91146573D01*
X144524254Y-91304393D01*
X144524255Y-91304396D01*
X144607917Y-91445862D01*
X144612702Y-91452031D01*
X144610369Y-91453840D01*
X144637210Y-91502995D01*
X144632226Y-91572687D01*
X144611470Y-91605021D01*
X144613097Y-91606283D01*
X144608313Y-91612449D01*
X144524718Y-91753801D01*
X144478899Y-91911513D01*
X144478704Y-91913998D01*
X144478705Y-91914000D01*
X147423295Y-91914000D01*
X147423295Y-91913998D01*
X147423100Y-91911513D01*
X147377281Y-91753801D01*
X147293685Y-91612447D01*
X147288900Y-91606278D01*
X147291366Y-91604364D01*
X147264802Y-91555776D01*
X147269749Y-91486082D01*
X147290856Y-91453232D01*
X147289301Y-91452026D01*
X147294077Y-91445868D01*
X147294081Y-91445865D01*
X147377744Y-91304398D01*
X147423598Y-91146569D01*
X147426500Y-91109694D01*
X147426500Y-90678306D01*
X147423598Y-90641431D01*
X147377744Y-90483602D01*
X147294081Y-90342135D01*
X147294078Y-90342132D01*
X147289298Y-90335969D01*
X147291750Y-90334066D01*
X147265155Y-90285421D01*
X147270104Y-90215726D01*
X147290940Y-90183304D01*
X147289298Y-90182031D01*
X147294075Y-90175870D01*
X147294081Y-90175865D01*
X147377744Y-90034398D01*
X147423598Y-89876569D01*
X147426500Y-89839694D01*
X147426500Y-89680153D01*
X148140500Y-89680153D01*
X148140500Y-89837846D01*
X148171261Y-89992489D01*
X148171264Y-89992501D01*
X148231602Y-90138172D01*
X148231609Y-90138185D01*
X148319602Y-90269874D01*
X148340480Y-90336551D01*
X148340500Y-90338765D01*
X148340500Y-91092329D01*
X148340499Y-91092347D01*
X148340499Y-91258055D01*
X148381422Y-91410782D01*
X148382274Y-91412258D01*
X148382273Y-91412258D01*
X148382277Y-91412263D01*
X148460477Y-91547711D01*
X148460481Y-91547716D01*
X148579349Y-91666584D01*
X148579355Y-91666589D01*
X149447683Y-92534918D01*
X149470046Y-92567824D01*
X149470285Y-92567684D01*
X149472522Y-92571467D01*
X149473804Y-92573353D01*
X149474257Y-92574401D01*
X149557916Y-92715861D01*
X149557923Y-92715870D01*
X149674129Y-92832076D01*
X149674133Y-92832079D01*
X149674135Y-92832081D01*
X149815602Y-92915744D01*
X149857224Y-92927836D01*
X149973426Y-92961597D01*
X149973429Y-92961597D01*
X149973431Y-92961598D01*
X150010306Y-92964500D01*
X150010314Y-92964500D01*
X151791686Y-92964500D01*
X151791694Y-92964500D01*
X151828569Y-92961598D01*
X151828571Y-92961597D01*
X151828573Y-92961597D01*
X151870191Y-92949505D01*
X151986398Y-92915744D01*
X152127865Y-92832081D01*
X152167252Y-92792693D01*
X152228572Y-92759208D01*
X152298264Y-92764191D01*
X152342614Y-92792693D01*
X152430707Y-92880786D01*
X152430711Y-92880789D01*
X152561814Y-92968390D01*
X152561827Y-92968397D01*
X152707498Y-93028735D01*
X152707503Y-93028737D01*
X152862153Y-93059499D01*
X152862156Y-93059500D01*
X152862158Y-93059500D01*
X153019844Y-93059500D01*
X153019845Y-93059499D01*
X153174497Y-93028737D01*
X153320179Y-92968394D01*
X153451289Y-92880789D01*
X153562789Y-92769289D01*
X153650394Y-92638179D01*
X153710737Y-92492497D01*
X153741500Y-92337842D01*
X153741500Y-92180158D01*
X153741500Y-92180155D01*
X153741499Y-92180153D01*
X153710738Y-92025510D01*
X153710737Y-92025503D01*
X153710735Y-92025498D01*
X153650397Y-91879827D01*
X153650390Y-91879814D01*
X153562789Y-91748711D01*
X153562786Y-91748707D01*
X153451292Y-91637213D01*
X153451288Y-91637210D01*
X153320185Y-91549609D01*
X153320172Y-91549602D01*
X153174501Y-91489264D01*
X153174491Y-91489261D01*
X153019151Y-91458362D01*
X152957241Y-91425977D01*
X152955662Y-91424426D01*
X152412819Y-90881583D01*
X152379334Y-90820260D01*
X152376500Y-90793902D01*
X152376500Y-90678313D01*
X152376499Y-90678298D01*
X152373598Y-90641432D01*
X152373597Y-90641426D01*
X152327745Y-90483606D01*
X152327744Y-90483603D01*
X152327744Y-90483602D01*
X152244081Y-90342135D01*
X152244078Y-90342132D01*
X152239298Y-90335969D01*
X152241750Y-90334066D01*
X152215155Y-90285421D01*
X152220104Y-90215726D01*
X152240940Y-90183304D01*
X152239298Y-90182031D01*
X152244075Y-90175870D01*
X152244081Y-90175865D01*
X152327744Y-90034398D01*
X152373598Y-89876569D01*
X152376500Y-89839694D01*
X152376500Y-89408306D01*
X152373598Y-89371431D01*
X152327744Y-89213602D01*
X152244081Y-89072135D01*
X152244078Y-89072132D01*
X152239298Y-89065969D01*
X152241750Y-89064066D01*
X152215155Y-89015421D01*
X152220104Y-88945726D01*
X152240940Y-88913304D01*
X152239298Y-88912031D01*
X152244075Y-88905870D01*
X152244081Y-88905865D01*
X152327744Y-88764398D01*
X152373598Y-88606569D01*
X152376500Y-88569694D01*
X152376500Y-88138306D01*
X152373598Y-88101431D01*
X152327744Y-87943602D01*
X152244081Y-87802135D01*
X152244079Y-87802133D01*
X152244076Y-87802129D01*
X152127870Y-87685923D01*
X152127862Y-87685917D01*
X151986396Y-87602255D01*
X151986393Y-87602254D01*
X151828573Y-87556402D01*
X151828567Y-87556401D01*
X151791701Y-87553500D01*
X151791694Y-87553500D01*
X150010306Y-87553500D01*
X150010298Y-87553500D01*
X149973432Y-87556401D01*
X149973426Y-87556402D01*
X149815606Y-87602254D01*
X149815603Y-87602255D01*
X149674137Y-87685917D01*
X149674129Y-87685923D01*
X149557923Y-87802129D01*
X149557917Y-87802137D01*
X149474255Y-87943603D01*
X149474254Y-87943606D01*
X149428402Y-88101426D01*
X149428401Y-88101432D01*
X149425500Y-88138298D01*
X149425500Y-88569701D01*
X149428401Y-88606567D01*
X149428402Y-88606573D01*
X149474254Y-88764393D01*
X149474255Y-88764396D01*
X149557917Y-88905862D01*
X149562702Y-88912031D01*
X149561016Y-88913338D01*
X149571285Y-88934125D01*
X149586857Y-88962642D01*
X149586669Y-88965264D01*
X149587834Y-88967622D01*
X149584191Y-88999909D01*
X149581873Y-89032334D01*
X149580205Y-89035243D01*
X149580002Y-89037052D01*
X149574356Y-89045453D01*
X149562621Y-89065935D01*
X149562688Y-89065987D01*
X149562321Y-89066459D01*
X149561834Y-89067310D01*
X149557245Y-89072944D01*
X149554716Y-89074679D01*
X149553372Y-89076681D01*
X149552402Y-89077651D01*
X149551582Y-89076831D01*
X149529611Y-89091917D01*
X149502419Y-89111548D01*
X149500900Y-89111630D01*
X149499645Y-89112492D01*
X149466124Y-89113513D01*
X149432652Y-89115326D01*
X149430948Y-89114585D01*
X149429808Y-89114620D01*
X149426598Y-89112693D01*
X149392211Y-89097736D01*
X149320185Y-89049609D01*
X149320172Y-89049602D01*
X149174501Y-88989264D01*
X149174489Y-88989261D01*
X149019845Y-88958500D01*
X149019842Y-88958500D01*
X148862158Y-88958500D01*
X148862155Y-88958500D01*
X148707510Y-88989261D01*
X148707498Y-88989264D01*
X148561827Y-89049602D01*
X148561814Y-89049609D01*
X148430711Y-89137210D01*
X148430707Y-89137213D01*
X148319213Y-89248707D01*
X148319210Y-89248711D01*
X148231609Y-89379814D01*
X148231602Y-89379827D01*
X148171264Y-89525498D01*
X148171261Y-89525510D01*
X148140500Y-89680153D01*
X147426500Y-89680153D01*
X147426500Y-89408306D01*
X147423598Y-89371431D01*
X147377744Y-89213602D01*
X147294081Y-89072135D01*
X147294078Y-89072132D01*
X147289298Y-89065969D01*
X147291750Y-89064066D01*
X147265155Y-89015421D01*
X147270104Y-88945726D01*
X147290940Y-88913304D01*
X147289298Y-88912031D01*
X147294075Y-88905870D01*
X147294081Y-88905865D01*
X147377744Y-88764398D01*
X147423598Y-88606569D01*
X147426500Y-88569694D01*
X147426500Y-88138306D01*
X147423598Y-88101431D01*
X147377744Y-87943602D01*
X147294081Y-87802135D01*
X147294079Y-87802133D01*
X147294076Y-87802129D01*
X147177870Y-87685923D01*
X147177862Y-87685917D01*
X147036396Y-87602255D01*
X147036393Y-87602254D01*
X146878573Y-87556402D01*
X146878567Y-87556401D01*
X146841701Y-87553500D01*
X146841694Y-87553500D01*
X145060306Y-87553500D01*
X145060298Y-87553500D01*
X145023432Y-87556401D01*
X145023426Y-87556402D01*
X144865606Y-87602254D01*
X144865603Y-87602255D01*
X144724137Y-87685917D01*
X144724129Y-87685923D01*
X144607923Y-87802129D01*
X144607917Y-87802137D01*
X144524255Y-87943603D01*
X144524254Y-87943606D01*
X144478402Y-88101426D01*
X144478401Y-88101432D01*
X144475500Y-88138298D01*
X136941000Y-88138298D01*
X136941000Y-85633000D01*
X136960685Y-85565961D01*
X137013489Y-85520206D01*
X137065000Y-85509000D01*
X162317000Y-85509000D01*
X162384039Y-85528685D01*
G37*
G04 #@! TD.AperFunction*
M02*
