M48
; DRILL file {KiCad 9.0.1} date 2026-02-12T23:07:09+0530
; FORMAT={-:-/ absolute / metric / decimal}
; #@! TF.CreationDate,2026-02-12T23:07:09+05:30
; #@! TF.GenerationSoftware,Kicad,Pcbnew,9.0.1
; #@! TF.FileFunction,Plated,1,2,PTH
FMAT,2
METRIC
; #@! TA.AperFunction,Plated,PTH,ViaDrill
T1C0.300
; #@! TA.AperFunction,Plated,PTH,ComponentDrill
T2C0.800
; #@! TA.AperFunction,Plated,PTH,ComponentDrill
T3C1.000
%
G90
G05
T1
X144.441Y-97.759
X146.441Y-94.259
X146.52Y-106.759
X146.52Y-110.759
X147.79Y-111.259
X148.941Y-89.759
X151.941Y-102.259
X151.941Y-110.259
X152.941Y-92.259
X152.941Y-101.259
X155.941Y-96.259
X155.941Y-99.159
X160.941Y-96.759
T2
X139.441Y-95.959
X139.441Y-99.759
T3
X158.441Y-92.639
X158.441Y-95.179
X158.441Y-97.719
X158.441Y-100.259
X158.441Y-102.799
M30
